
<svg width="81px" height="125px" viewBox="0 0 81 65" version="1.1" xmlns="http://www.w3.org/2000/svg" xmlns:xlink="http://www.w3.org/1999/xlink">
    <g id="Page-1" stroke="none" stroke-width="1" fill="none" fill-rule="evenodd">
        <g id="Marketing-site" transform="translate(-215.000000, -4034.000000)" fill="#EA945F" fill-rule="nonzero" stroke="#EA945F" stroke-width="2">
            <g id="Group-7" transform="translate(122.000000, 4005.000000)">
                <g id="book" transform="translate(93.733681, 30.853659)">
                    <path d="M54.1009644,29.3109756 L41.3788849,29.3109756 L41.3788849,16.5838415 C41.3788849,15.6839431 40.6078497,14.9126016 39.7083088,14.9126016 C38.8087678,14.9126016 38.0377327,15.6839431 38.0377327,16.5838415 L38.0377327,29.3109756 L25.3156532,29.3109756 C24.4161122,29.3109756 23.6450771,30.0823171 23.6450771,30.9822154 C23.6450771,31.8821138 24.4161122,32.6534553 25.3156532,32.6534553 L38.0377327,32.6534553 L38.0377327,45.3805894 C38.0377327,46.2804878 38.8087678,47.0518293 39.7083088,47.0518293 C40.6078497,47.0518293 41.3788849,46.2804878 41.3788849,45.3805894 L41.3788849,32.6534553 L54.1009644,32.6534553 C55.0005053,32.6534553 55.7715405,31.8821138 55.7715405,30.9822154 C55.7715405,30.0823171 55.0005053,29.3109756 54.1009644,29.3109756 Z" id="Shape"></path>
                    <path d="M73.76236,0.128556911 L5.91126927,0.128556911 C2.95563463,0.128556911 0.514023414,2.57113821 0.514023414,5.52794715 L0.514023414,55.9222561 C0.514023414,59.1361789 2.95563463,61.5787602 6.29678683,61.5787602 L60.1407395,61.5787602 C61.425798,61.5787602 62.8393624,61.0645325 63.7389034,60.0360772 L77.3605239,46.4090447 C78.5170766,45.2520325 79.0311,43.8379065 79.0311,42.1666667 L79.0311,5.52794715 C79.1596058,2.57113821 76.7179946,0.128556911 73.76236,0.128556911 Z M3.72666975,55.9222561 L3.72666975,5.52794715 C3.72666975,4.37093496 4.62621073,3.34247967 5.91126927,3.34247967 L73.8908658,3.34247967 C75.0474185,3.34247967 75.9469595,4.24237805 75.9469595,5.39939024 L75.9469595,41.1382114 L63.7389034,41.1382114 C60.9117746,41.1382114 58.7271751,43.4522358 58.7271751,46.1519309 L58.7271751,58.3648374 L6.29678683,58.3648374 C4.75471658,58.3648374 3.72666975,57.464939 3.72666975,55.9222561 Z M61.9398214,57.3363821 L61.9398214,46.1519309 C61.9398214,45.1234756 62.7108566,44.3521341 63.7389034,44.3521341 L74.9189127,44.3521341 L61.9398214,57.3363821 Z" id="Shape"></path>
                </g>
            </g>
        </g>
    </g>
</svg>