
<svg width="74px" height="125px" viewBox="0 0 74 72" version="1.1" xmlns="http://www.w3.org/2000/svg" xmlns:xlink="http://www.w3.org/1999/xlink">
    <g id="Page-1" stroke="none" stroke-width="1" fill="none" fill-rule="evenodd">
        <g id="Marketing-site" transform="translate(-860.000000, -4030.000000)" fill="#EA945F" fill-rule="nonzero">
            <g id="Group-7" transform="translate(122.000000, 4005.000000)">
                <g id="Geo" transform="translate(738.321149, 25.243902)">
                    <path d="M3.89734781,39.8526423 L8.41567303,39.8526423 C10.1707787,52.8188923 20.6338584,63.0867327 33.7770143,64.6936941 L33.7770143,68.1351626 C33.7770143,69.9105335 35.2307251,71.3490854 37.0248042,71.3490854 C38.8188833,71.3490854 40.272594,69.9105335 40.272594,68.1351626 L40.272594,64.7785417 C53.7470245,63.4621189 64.5556691,53.0515803 66.3419535,39.8526423 L70.1522605,39.8526423 C71.9463397,39.8526423 73.4000504,38.4140904 73.4000504,36.6387195 C73.4000504,34.8633486 71.9463397,33.4247967 70.1522605,33.4247967 L66.4874545,33.4247967 C65.2519952,19.6203557 54.1822283,8.5721748 40.272594,7.21332825 L40.272594,3.85670732 C40.272594,2.08133638 38.8188833,0.642784553 37.0248042,0.642784553 C35.2307251,0.642784553 33.7770143,2.08133638 33.7770143,3.85670732 L33.7770143,7.29817581 C20.2025519,8.95784553 9.48484545,19.8569004 8.27017205,33.4247967 L3.89734781,33.4247967 C2.1032687,33.4247967 0.649557968,34.8633486 0.649557968,36.6387195 C0.649557968,38.4140904 2.1032687,39.8526423 3.89734781,39.8526423 Z M33.7770143,13.8082978 L33.7770143,16.7123984 C33.7770143,18.4877693 35.2307251,19.9263211 37.0248042,19.9263211 C38.8188833,19.9263211 40.272594,18.4877693 40.272594,16.7123984 L40.272594,13.7015955 C50.592771,15.0077337 58.7681076,23.1710976 59.9529013,33.4247967 L55.8619853,33.4247967 C54.0679061,33.4247967 52.6141954,34.8633486 52.6141954,36.6387195 C52.6141954,38.4140904 54.0679061,39.8526423 55.8619853,39.8526423 L59.7541366,39.8526423 C58.0600894,49.4956961 50.1562681,57.0394157 40.272594,58.2902744 L40.272594,55.2794715 C40.272594,53.5041006 38.8188833,52.0655488 37.0248042,52.0655488 C35.2307251,52.0655488 33.7770143,53.5041006 33.7770143,55.2794715 L33.7770143,58.1835722 C24.225914,56.6678862 16.6559654,49.2642937 15.0034899,39.8526423 L18.1876231,39.8526423 C19.9817022,39.8526423 21.4354129,38.4140904 21.4354129,36.6387195 C21.4354129,34.8633486 19.9817022,33.4247967 18.1876231,33.4247967 L14.8047252,33.4247967 C15.9622375,23.4076423 23.7933084,15.3921189 33.7770143,13.8082978 Z" id="Shape"></path>
                </g>
            </g>
        </g>
    </g>
</svg>