
<svg width="96px" height="125px" viewBox="0 0 96 71" version="1.1" xmlns="http://www.w3.org/2000/svg" xmlns:xlink="http://www.w3.org/1999/xlink">
    <g id="Page-1" stroke="none" stroke-width="1" fill="none" fill-rule="evenodd">
        <g id="Marketing-site" transform="translate(-1167.000000, -4356.000000)" fill="#EA945F" fill-rule="nonzero" stroke="#EA945F" stroke-width="2">
            <g id="open-source" transform="translate(1168.000000, 4357.000000)">
                <path d="M92.4333333,0 L1.56666667,0 C0.626666667,0 0,0.627272727 0,1.56818182 L0,67.4318182 C0,68.3727273 0.626666667,69 1.56666667,69 L92.4333333,69 C93.3733333,69 94,68.3727273 94,67.4318182 L94,1.56818182 C94,0.627272727 93.3733333,0 92.4333333,0 Z M90.8666667,3.13636364 L90.8666667,12.5454545 L3.13333333,12.5454545 L3.13333333,3.13636364 L90.8666667,3.13636364 Z M3.13333333,65.8636364 L3.13333333,15.6818182 L90.8666667,15.6818182 L90.8666667,65.8636364 L3.13333333,65.8636364 Z M37.9133333,24.9340909 L22.4033333,40.4590909 L37.9133333,55.9840909 C38.54,56.6113636 38.54,57.5522727 37.9133333,58.1795455 C37.6,58.4931818 37.13,58.65 36.8166667,58.65 C36.5033333,58.65 36.0333333,58.4931818 35.72,58.1795455 L19.1133333,41.5568182 C18.4866667,40.9295455 18.4866667,39.9886364 19.1133333,39.3613636 L35.72,22.7386364 C36.3466667,22.1113636 37.2866667,22.1113636 37.9133333,22.7386364 C38.54,23.3659091 38.54,24.3068182 37.9133333,24.9340909 Z M74.8866667,39.3613636 C75.5133333,39.9886364 75.5133333,40.9295455 74.8866667,41.5568182 L58.28,58.1795455 C57.9666667,58.4931818 57.4966667,58.65 57.1833333,58.65 C56.87,58.65 56.4,58.4931818 56.0866667,58.1795455 C55.46,57.5522727 55.46,56.6113636 56.0866667,55.9840909 L71.5966667,40.4590909 L56.0866667,24.9340909 C55.46,24.3068182 55.46,23.3659091 56.0866667,22.7386364 C56.7133333,22.1113636 57.6533333,22.1113636 58.28,22.7386364 L74.8866667,39.3613636 Z M52.4833333,24.3068182 L44.65,57.2386364 C44.4933333,58.0227273 43.8666667,58.4931818 43.0833333,58.4931818 C42.9266667,58.4931818 42.77,58.4931818 42.77,58.4931818 C41.9866667,58.3363636 41.36,57.3954545 41.6733333,56.6113636 L49.5066667,23.6795455 C49.6633333,22.8954545 50.6033333,22.2681818 51.3866667,22.5818182 C52.17,22.5818182 52.64,23.3659091 52.4833333,24.3068182 Z M7.67666667,7.84090909 C7.67666667,6.42954545 8.77333333,5.33181818 10.1833333,5.33181818 C11.5933333,5.33181818 12.5333333,6.58636364 12.5333333,7.84090909 C12.5333333,9.25227273 11.4366667,10.35 10.0266667,10.35 C8.61666667,10.35 7.67666667,9.25227273 7.67666667,7.84090909 Z M15.3533333,7.84090909 C15.3533333,6.42954545 16.45,5.33181818 17.86,5.33181818 C19.27,5.33181818 20.3666667,6.42954545 20.3666667,7.84090909 C20.3666667,9.25227273 19.27,10.35 17.86,10.35 C16.45,10.35 15.3533333,9.25227273 15.3533333,7.84090909 Z M23.03,7.84090909 C23.03,6.42954545 24.1266667,5.33181818 25.5366667,5.33181818 C26.9466667,5.33181818 28.0433333,6.42954545 28.0433333,7.84090909 C28.0433333,9.25227273 26.9466667,10.35 25.5366667,10.35 C24.1266667,10.35 23.03,9.25227273 23.03,7.84090909 Z" id="Shape"></path>
            </g>
        </g>
    </g>
</svg>