<svg width="586px" height="96px"  viewBox="0 0 249 41" version="1.1" xmlns="http://www.w3.org/2000/svg" xmlns:xlink="http://www.w3.org/1999/xlink">
    <g id="Final-w/-mobile" stroke="none" stroke-width="1" fill="none" fill-rule="evenodd">
        <g id="Exports" transform="translate(-487.000000, -176.000000)">
            <g id="Logo-2-Copy" transform="translate(487.000000, 176.000000)">
                <g id="Logo-Copy-5">
                    <g id="Logo">
                        <path d="M5,0.202302632 L177.65276,0.202302632 C180.414184,0.202302632 182.65276,2.44087888 182.65276,5.20230263 L182.65276,36 C182.65276,38.7614237 180.414184,41 177.65276,41 L5,41 C2.23857625,41 3.38176876e-16,38.7614237 0,36 L0,5.20230263 C-3.38176876e-16,2.44087888 2.23857625,0.202302632 5,0.202302632 Z M8.04361992,30.9276667 C8.04361992,31.2306126 8.1833187,31.4902767 8.46272044,31.7066667 C8.74212217,31.9230566 9.1074882,32.03125 9.55882946,32.03125 L16.1032451,32.03125 C18.0590573,32.03125 19.6172359,31.4902832 20.7778278,30.4083333 C21.9384196,29.3263835 22.5187068,27.5952897 22.5187068,25.215 L22.5187068,24.5982917 C22.5187068,23.0402839 22.2393093,21.8555666 21.6805058,21.0441042 C21.1217023,20.2326418 20.2942557,19.6105299 19.1981412,19.17775 C21.0249987,18.3554681 21.9384138,16.6027356 21.9384138,13.9195 C21.9384138,11.8205173 21.3473805,10.3599069 20.1652962,9.537625 C18.983212,8.71534311 17.4035412,8.30420833 15.4262366,8.30420833 L9.55882946,8.30420833 C9.15047308,8.30420833 8.79585312,8.40699203 8.49495894,8.6125625 C8.19406476,8.81813297 8.04361992,9.09402605 8.04361992,9.44025 L8.04361992,30.9276667 Z M62.3654939,30.8952083 C62.3654939,31.2414323 62.5374308,31.5173254 62.8813099,31.7228958 C63.2251889,31.9284663 63.6227931,32.03125 64.0741344,32.03125 C64.5469681,32.03125 64.9499453,31.9284663 65.2830782,31.7228958 C65.616211,31.5173254 65.7827749,31.2414323 65.7827749,30.8952083 L65.7827749,24.1114167 L67.8782775,21.4498333 L74.4549317,31.4794583 C74.7343334,31.9122383 75.1426837,32.128625 75.6799947,32.128625 C76.1743209,32.128625 76.6310284,31.950106 77.050131,31.5930625 C77.4692336,31.236019 77.6787818,30.8519326 77.6787818,30.4407917 C77.6787818,30.2244017 77.6143054,30.0188343 77.4853508,29.8240833 L70.1349726,18.5610417 L76.3247647,10.7710417 C76.4967043,10.5762907 76.5826727,10.3490846 76.5826727,10.0894167 C76.5826727,9.65663673 76.3677515,9.25091162 75.9379027,8.87222917 C75.5080539,8.49354672 75.0674655,8.30420833 74.6161242,8.30420833 C74.1862754,8.30420833 73.8638936,8.46649838 73.6489692,8.79108333 L65.7827749,19.275125 L65.7827749,9.40779167 C65.7827749,9.03992872 65.616211,8.76403564 65.2830782,8.58010417 C64.9499453,8.39617269 64.5469681,8.30420833 64.0741344,8.30420833 C63.6013007,8.30420833 63.1983235,8.39617269 62.8651906,8.58010417 C62.5320578,8.76403564 62.3654939,9.03992872 62.3654939,9.40779167 L62.3654939,30.8952083 Z M84.5778209,30.6030833 C84.5778209,30.9925853 84.8034882,31.3279847 85.2548295,31.6092917 C85.7061707,31.8905986 86.1897434,32.03125 86.705562,32.03125 C87.3503352,32.03125 87.7479394,31.7932246 87.8983865,31.3171667 L89.2201651,26.7080833 L97.1830748,26.7080833 L98.5048533,31.3171667 C98.6553004,31.7932246 99.0421585,32.03125 99.6654393,32.03125 C100.181258,32.03125 100.670204,31.8905986 101.132291,31.6092917 C101.594379,31.3279847 101.825419,30.9925853 101.825419,30.6030833 C101.825419,30.5381663 101.803927,30.4407923 101.760942,30.3109583 L95.3777187,9.27795833 C95.1198094,8.49895444 94.3890774,8.10945833 93.1855007,8.10945833 C92.0034164,8.10945833 91.2834304,8.49895444 91.0255211,9.27795833 L84.6100594,30.3109583 C84.588567,30.3758753 84.5778209,30.4732494 84.5778209,30.6030833 Z M109.143559,9.86220833 C109.143559,10.2949883 109.245646,10.6682554 109.449824,10.9820208 C109.654003,11.2957863 109.928027,11.4526667 110.271906,11.4526667 L115.268874,11.4526667 L115.268874,30.8952083 C115.268874,31.2414323 115.435438,31.5173254 115.768571,31.7228958 C116.101703,31.9284663 116.504681,32.03125 116.977514,32.03125 C117.428856,32.03125 117.82646,31.9284663 118.170339,31.7228958 C118.514218,31.5173254 118.686155,31.2414323 118.686155,30.8952083 L118.686155,11.4526667 L123.650884,11.4526667 C123.994763,11.4526667 124.268788,11.2957863 124.472966,10.9820208 C124.677144,10.6682554 124.779232,10.2841689 124.779232,9.82975 C124.779232,9.41860906 124.682517,9.06157096 124.489085,8.758625 C124.295653,8.45567904 124.016255,8.30420833 123.650884,8.30420833 L110.271906,8.30420833 C109.906535,8.30420833 109.627137,8.46108871 109.433705,8.77485417 C109.240273,9.08861962 109.143559,9.45106739 109.143559,9.86220833 Z M127.358312,30.8952083 C127.358312,31.2414323 127.508756,31.5173254 127.809651,31.7228958 C128.110545,31.9284663 128.465165,32.03125 128.873521,32.03125 L140.350427,32.03125 C140.715799,32.03125 140.995196,31.8797793 141.188628,31.5768333 C141.38206,31.2738874 141.478775,30.9276686 141.478775,30.5381667 C141.478775,30.1053867 141.376687,29.7375293 141.172509,29.4345833 C140.968331,29.1316374 140.694306,28.9801667 140.350427,28.9801667 L130.775593,28.9801667 L130.775593,21.51475 L135.740322,21.51475 C136.105693,21.51475 136.385091,21.3795083 136.578523,21.1090208 C136.771955,20.8385334 136.868669,20.5301823 136.868669,20.1839583 C136.868669,19.7944564 136.766582,19.4644666 136.562404,19.1939792 C136.358225,18.9234917 136.084201,18.78825 135.740322,18.78825 L130.775593,18.78825 L130.775593,11.3552917 L140.350427,11.3552917 C140.694306,11.3552917 140.968331,11.203821 141.172509,10.900875 C141.376687,10.597929 141.478775,10.2300716 141.478775,9.79729167 C141.478775,9.40778972 141.38206,9.06157096 141.188628,8.758625 C140.995196,8.45567904 140.715799,8.30420833 140.350427,8.30420833 L128.873521,8.30420833 C128.465165,8.30420833 128.110545,8.40699203 127.809651,8.6125625 C127.508756,8.81813297 127.358312,9.09402605 127.358312,9.44025 L127.358312,30.8952083 Z M143.026223,28.4608333 C143.026223,29.3480322 143.719344,30.2081694 145.105606,31.0412708 C146.491869,31.8743722 148.173627,32.2909167 150.150932,32.2909167 C152.364653,32.2909167 154.143126,31.7012628 155.486404,30.5219375 C156.829681,29.3426122 157.50131,27.6277474 157.50131,25.3772917 C157.50131,24.2087858 157.307881,23.1809489 156.921017,22.29375 C156.534153,21.4065511 156.034461,20.7087039 155.421927,20.2001875 C154.809392,19.6916711 154.13239,19.2426686 153.390901,18.8531667 C152.649412,18.4636647 151.902561,18.1228556 151.150325,17.8307292 C150.39809,17.5386027 149.715715,17.241071 149.10318,16.938125 C148.490646,16.635179 147.990954,16.2510926 147.60409,15.7858542 C147.217226,15.3206157 147.023797,14.7634199 147.023797,14.11425 C147.023797,13.1188561 147.389163,12.3777316 148.119906,11.8908542 C148.850649,11.4039767 149.828541,11.1605417 151.05361,11.1605417 C151.84883,11.1605417 152.552697,11.2633254 153.165232,11.4688958 C153.777766,11.6744663 154.266712,11.8800337 154.632083,12.0856042 C154.997455,12.2911746 155.287598,12.3939583 155.502523,12.3939583 C155.932372,12.3939583 156.276246,12.1883909 156.534155,11.77725 C156.792064,11.3661091 156.921017,10.9549743 156.921017,10.5438333 C156.921017,10.1326924 156.716842,9.76483496 156.308485,9.44025 C155.900129,9.11566504 155.384318,8.86682031 154.761037,8.69370833 C154.137757,8.52059636 153.509112,8.39617399 152.875085,8.3204375 C152.241058,8.24470101 151.633906,8.20683333 151.05361,8.20683333 C150.129435,8.20683333 149.253631,8.30961703 148.426172,8.5151875 C147.598713,8.72075797 146.808878,9.05074773 146.056642,9.50516667 C145.304407,9.95958561 144.708,10.6087458 144.267405,11.4526667 C143.82681,12.2965876 143.606516,13.2919665 143.606516,14.4388333 C143.606516,15.8670071 143.966509,17.0571341 144.686506,18.00925 C145.406503,18.9613659 146.282306,19.6754421 147.313944,20.1515 C148.345581,20.6275579 149.371829,21.0711507 150.39272,21.4822917 C151.413611,21.8934326 152.284042,22.4452188 153.004039,23.1376667 C153.724036,23.8301146 154.084029,24.6956615 154.084029,25.7343333 C154.084029,26.8595612 153.71329,27.7142887 152.971801,28.2985417 C152.230311,28.8827946 151.247047,29.1749167 150.021978,29.1749167 C149.205265,29.1749167 148.46916,29.039675 147.81364,28.7691875 C147.158121,28.4987 146.669175,28.206578 146.346789,27.8928125 C146.024402,27.579047 145.696647,27.286925 145.363514,27.0164375 C145.030381,26.74595 144.745611,26.6107083 144.509194,26.6107083 C144.12233,26.6107083 143.778456,26.8162757 143.477562,27.2274167 C143.176668,27.6385576 143.026223,28.0496924 143.026223,28.4608333 Z M159.048758,9.86220833 C159.048758,10.2949883 159.150845,10.6682554 159.355024,10.9820208 C159.559202,11.2957863 159.833226,11.4526667 160.177105,11.4526667 L165.174073,11.4526667 L165.174073,30.8952083 C165.174073,31.2414323 165.340637,31.5173254 165.67377,31.7228958 C166.006903,31.9284663 166.40988,32.03125 166.882714,32.03125 C167.334055,32.03125 167.731659,31.9284663 168.075538,31.7228958 C168.419417,31.5173254 168.591354,31.2414323 168.591354,30.8952083 L168.591354,11.4526667 L173.556083,11.4526667 C173.899962,11.4526667 174.173987,11.2957863 174.378165,10.9820208 C174.582343,10.6682554 174.684431,10.2841689 174.684431,9.82975 C174.684431,9.41860906 174.587716,9.06157096 174.394284,8.758625 C174.200852,8.45567904 173.921455,8.30420833 173.556083,8.30420833 L160.177105,8.30420833 C159.811734,8.30420833 159.532336,8.46108871 159.338904,8.77485417 C159.145472,9.08861962 159.048758,9.45106739 159.048758,9.86220833 Z M11.4286625,28.9801667 L11.4286625,20.541 L15.4584751,20.541 C16.6620518,20.541 17.5700939,20.8439414 18.1826284,21.4498333 C18.795163,22.0557253 19.1014257,23.0511042 19.1014257,24.436 L19.1014257,24.9553333 C19.1014257,27.638569 17.887121,28.9801667 15.4584751,28.9801667 L11.4286625,28.9801667 Z M11.4286625,17.8145 L11.4286625,11.3552917 L15.2005671,11.3552917 C17.4142886,11.3552917 18.5211327,12.3939479 18.5211327,14.4712917 C18.5211327,16.7001084 17.4357807,17.8145 15.2650441,17.8145 L11.4286625,17.8145 Z M25.6458414,24.9877917 C25.6458414,27.4762763 26.301351,29.3047442 27.6123899,30.47325 C28.9234289,31.6417558 30.6750366,32.226 32.8672656,32.226 C35.0594946,32.226 36.8164753,31.6417558 38.1382605,30.47325 C39.4600456,29.3047442 40.1209283,27.4762763 40.1209283,24.9877917 L40.1209283,15.5424167 C40.1209283,13.053932 39.4600456,11.2254642 38.1382605,10.0569583 C36.8164753,8.88845249 35.0594946,8.30420833 32.8672656,8.30420833 C30.6750366,8.30420833 28.9234289,8.88845249 27.6123899,10.0569583 C26.301351,11.2254642 25.6458414,13.053932 25.6458414,15.5424167 L25.6458414,24.9877917 Z M29.0631225,24.9877917 L29.0631225,15.5424167 C29.0631225,12.750986 30.3311575,11.3552917 32.8672656,11.3552917 C34.0923347,11.3552917 35.037988,11.7015104 35.7042537,12.3939583 C36.3705193,13.0864062 36.7036472,14.1358819 36.7036472,15.5424167 L36.7036472,24.9877917 C36.7036472,26.3943265 36.3705193,27.4438021 35.7042537,28.13625 C35.037988,28.8286979 34.0923347,29.1749167 32.8672656,29.1749167 C30.3311575,29.1749167 29.0631225,27.7792223 29.0631225,24.9877917 Z M43.8928329,24.9877917 C43.8928329,27.4762763 44.5483425,29.3047442 45.8593814,30.47325 C47.1704203,31.6417558 48.922028,32.226 51.1142571,32.226 C53.3064861,32.226 55.0634668,31.6417558 56.385252,30.47325 C57.7070371,29.3047442 58.3679198,27.4762763 58.3679198,24.9877917 L58.3679198,15.5424167 C58.3679198,13.053932 57.7070371,11.2254642 56.385252,10.0569583 C55.0634668,8.88845249 53.3064861,8.30420833 51.1142571,8.30420833 C48.922028,8.30420833 47.1704203,8.88845249 45.8593814,10.0569583 C44.5483425,11.2254642 43.8928329,13.053932 43.8928329,15.5424167 L43.8928329,24.9877917 Z M47.310114,24.9877917 L47.310114,15.5424167 C47.310114,12.750986 48.578149,11.3552917 51.1142571,11.3552917 C52.3393262,11.3552917 53.2849795,11.7015104 53.9512451,12.3939583 C54.6175108,13.0864062 54.9506387,14.1358819 54.9506387,15.5424167 L54.9506387,24.9877917 C54.9506387,26.3943265 54.6175108,27.4438021 53.9512451,28.13625 C53.2849795,28.8286979 52.3393262,29.1749167 51.1142571,29.1749167 C48.578149,29.1749167 47.310114,27.7792223 47.310114,24.9877917 Z M89.9616506,23.949125 L93.1855007,12.8159167 L96.4093508,23.949125 L89.9616506,23.949125 Z" id="Combined-Shape" fill="#5593F0"></path>
                        <path d="M206.793015,40.6403509 C205.973056,40.6403509 205.308348,39.9711099 205.308348,39.1455592 C205.308348,38.3200086 205.973056,37.6507675 206.793015,37.6507675 L242.000852,37.6507675 C242.820811,37.6507675 243.48552,38.3200086 243.48552,39.1455592 C243.48552,39.9711099 242.820811,40.6403509 242.000852,40.6403509 L206.793015,40.6403509 Z" id="Line" fill="#5593F0" fill-rule="nonzero"></path>
                        <path d="M193.465194,30.932432 C193.099822,30.5429301 192.917139,30.0776986 192.917139,29.5367237 C192.917139,28.9957488 193.099822,28.535927 193.465194,28.1572445 C193.830565,27.7785621 194.292646,27.5892237 194.851449,27.5892237 C195.367268,27.5892237 195.813229,27.7785621 196.189347,28.1572445 C196.565465,28.535927 196.753521,28.9957488 196.753521,29.5367237 C196.753521,30.0560596 196.565465,30.5104717 196.189347,30.8999737 C195.813229,31.2894756 195.367268,31.4842237 194.851449,31.4842237 C194.292646,31.4842237 193.830565,31.300295 193.465194,30.932432 Z M206.360594,30.153432 L206.360594,8.66601535 C206.360594,8.2981524 206.527158,8.02225933 206.860291,7.83832785 C207.193424,7.65439638 207.596401,7.56243202 208.069235,7.56243202 C208.542068,7.56243202 208.945045,7.65439638 209.278178,7.83832785 C209.611311,8.02225933 209.777875,8.2981524 209.777875,8.66601535 L209.777875,17.6245154 L217.805262,17.6245154 L217.805262,8.66601535 C217.805262,8.2981524 217.971826,8.02225933 218.304959,7.83832785 C218.638091,7.65439638 219.041069,7.56243202 219.513902,7.56243202 C219.986736,7.56243202 220.389713,7.65439638 220.722846,7.83832785 C221.055979,8.02225933 221.222543,8.2981524 221.222543,8.66601535 L221.222543,30.153432 C221.222543,30.499656 221.055979,30.775549 220.722846,30.9811195 C220.389713,31.18669 219.986736,31.2894737 219.513902,31.2894737 C219.062561,31.2894737 218.664957,31.18669 218.321078,30.9811195 C217.977199,30.775549 217.805262,30.499656 217.805262,30.153432 L217.805262,20.3510154 L209.777875,20.3510154 L209.777875,30.153432 C209.777875,30.499656 209.611311,30.775549 209.278178,30.9811195 C208.945045,31.18669 208.542068,31.2894737 208.069235,31.2894737 C207.617893,31.2894737 207.220289,31.18669 206.87641,30.9811195 C206.532531,30.775549 206.360594,30.499656 206.360594,30.153432 Z M225.478025,30.153432 L225.478025,8.66601535 C225.478025,8.2981524 225.644589,8.02225933 225.977722,7.83832785 C226.310855,7.65439638 226.713832,7.56243202 227.186666,7.56243202 C227.659499,7.56243202 228.062476,7.65439638 228.395609,7.83832785 C228.728742,8.02225933 228.895306,8.2981524 228.895306,8.66601535 L228.895306,30.153432 C228.895306,30.499656 228.728742,30.775549 228.395609,30.9811195 C228.062476,31.18669 227.659499,31.2894737 227.186666,31.2894737 C226.735324,31.2894737 226.33772,31.18669 225.993841,30.9811195 C225.649962,30.775549 225.478025,30.499656 225.478025,30.153432 Z M231.442148,8.99059868 C231.442148,8.60109674 231.667815,8.26569731 232.119156,7.98439035 C232.570497,7.70308339 233.05407,7.56243202 233.569889,7.56243202 C234.214662,7.56243202 234.612266,7.80045742 234.762713,8.27651535 L240.082066,26.7777654 L245.36918,8.27651535 C245.519627,7.80045742 245.906485,7.56243202 246.529766,7.56243202 C247.045585,7.56243202 247.53453,7.70308339 247.996618,7.98439035 C248.458705,8.26569731 248.689746,8.60109674 248.689746,8.99059868 C248.689746,9.05551568 248.668253,9.1528897 248.625269,9.28272368 L242.242045,30.3157237 C242.134583,30.6835866 241.876678,30.970299 241.468321,31.1758695 C241.059965,31.38144 240.597884,31.4842237 240.082066,31.4842237 C238.899982,31.4842237 238.179996,31.0947276 237.922086,30.3157237 L231.474386,9.28272368 C231.452894,9.21780669 231.442148,9.12043267 231.442148,8.99059868 Z" id=".-HIV" fill="#FFFFFF"></path>
                    </g>
                </g>
            </g>
        </g>
    </g>
</svg>