<?xml version="1.0" encoding="UTF-8"?>
<svg width="586px" height="96px" viewBox="0 0 249 41" version="1.1" xmlns="http://www.w3.org/2000/svg" xmlns:xlink="http://www.w3.org/1999/xlink">
    <!-- Generator: Sketch 53.2 (72643) - https://sketchapp.com -->
    <title>Logo 2 Copy</title>
    <desc>Created with Sketch.</desc>
    <g id="Final-w/-mobile" stroke="none" stroke-width="1" fill="none" fill-rule="evenodd">
        <g id="Exports" transform="translate(-487.000000, -176.000000)">
            <g id="Logo-2-Copy" transform="translate(487.000000, 176.000000)">
                <g id="Logo-Copy-5">
                    <rect id="Rectangle" fill="#5593F0" x="0" y="0.202302632" width="182.65276" height="40.7976974" rx="5"></rect>
                    <g id="Logo" transform="translate(8.000000, 7.000000)">
                        <path d="M0.0436199242,23.9276667 L0.0436199242,2.44025 C0.0436199242,2.09402605 0.194064757,1.81813297 0.494958936,1.6125625 C0.795853115,1.40699203 1.15047308,1.30420833 1.55882946,1.30420833 L7.42623662,1.30420833 C9.40354122,1.30420833 10.983212,1.71534311 12.1652962,2.537625 C13.3473805,3.35990689 13.9384138,4.82051728 13.9384138,6.9195 C13.9384138,9.60273564 13.0249987,11.3554681 11.1981412,12.17775 C12.2942557,12.6105299 13.1217023,13.2326418 13.6805058,14.0441042 C14.2393093,14.8555666 14.5187068,16.0402839 14.5187068,17.5982917 L14.5187068,18.215 C14.5187068,20.5952897 13.9384196,22.3263835 12.7778278,23.4083333 C11.6172359,24.4902832 10.0590573,25.03125 8.10324514,25.03125 L1.55882946,25.03125 C1.1074882,25.03125 0.742122173,24.9230566 0.462720435,24.7066667 C0.183318698,24.4902767 0.0436199242,24.2306126 0.0436199242,23.9276667 Z M3.42866251,21.9801667 L7.45847512,21.9801667 C9.88712099,21.9801667 11.1014257,20.638569 11.1014257,17.9553333 L11.1014257,17.436 C11.1014257,16.0511042 10.795163,15.0557253 10.1826284,14.4498333 C9.57009386,13.8439414 8.66205184,13.541 7.45847512,13.541 L3.42866251,13.541 L3.42866251,21.9801667 Z M3.42866251,10.8145 L7.26504412,10.8145 C9.43578069,10.8145 10.5211327,9.70010837 10.5211327,7.47129167 C10.5211327,5.39394795 9.41428857,4.35529167 7.20056711,4.35529167 L3.42866251,4.35529167 L3.42866251,10.8145 Z M54.3654939,23.8952083 L54.3654939,2.40779167 C54.3654939,2.03992872 54.5320578,1.76403564 54.8651906,1.58010417 C55.1983235,1.39617269 55.6013007,1.30420833 56.0741344,1.30420833 C56.5469681,1.30420833 56.9499453,1.39617269 57.2830782,1.58010417 C57.616211,1.76403564 57.7827749,2.03992872 57.7827749,2.40779167 L57.7827749,12.275125 L65.6489692,1.79108333 C65.8638936,1.46649838 66.1862754,1.30420833 66.6161242,1.30420833 C67.0674655,1.30420833 67.5080539,1.49354672 67.9379027,1.87222917 C68.3677515,2.25091162 68.5826727,2.65663672 68.5826727,3.08941667 C68.5826727,3.34908463 68.4967043,3.57629069 68.3247647,3.77104167 L62.1349726,11.5610417 L69.4853508,22.8240833 C69.6143054,23.0188343 69.6787818,23.2244017 69.6787818,23.4407917 C69.6787818,23.8519326 69.4692336,24.236019 69.050131,24.5930625 C68.6310284,24.950106 68.1743209,25.128625 67.6799947,25.128625 C67.1426837,25.128625 66.7343334,24.9122383 66.4549317,24.4794583 L59.8782775,14.4498333 L57.7827749,17.1114167 L57.7827749,23.8952083 C57.7827749,24.2414323 57.616211,24.5173254 57.2830782,24.7228958 C56.9499453,24.9284663 56.5469681,25.03125 56.0741344,25.03125 C55.6227931,25.03125 55.2251889,24.9284663 54.8813099,24.7228958 C54.5374308,24.5173254 54.3654939,24.2414323 54.3654939,23.8952083 Z M76.5778209,23.6030833 C76.5778209,23.4732494 76.588567,23.3758753 76.6100594,23.3109583 L83.0255211,2.27795833 C83.2834304,1.49895444 84.0034164,1.10945833 85.1855007,1.10945833 C86.3890774,1.10945833 87.1198094,1.49895444 87.3777187,2.27795833 L93.7609419,23.3109583 C93.8039268,23.4407923 93.8254189,23.5381663 93.8254189,23.6030833 C93.8254189,23.9925853 93.5943786,24.3279847 93.1322911,24.6092917 C92.6702036,24.8905986 92.1812579,25.03125 91.6654393,25.03125 C91.0421585,25.03125 90.6553004,24.7932246 90.5048533,24.3171667 L89.1830748,19.7080833 L81.2201651,19.7080833 L79.8983865,24.3171667 C79.7479394,24.7932246 79.3503352,25.03125 78.705562,25.03125 C78.1897434,25.03125 77.7061707,24.8905986 77.2548295,24.6092917 C76.8034882,24.3279847 76.5778209,23.9925853 76.5778209,23.6030833 Z M81.9616506,16.949125 L88.4093508,16.949125 L85.1855007,5.81591667 L81.9616506,16.949125 Z M101.143559,2.86220833 C101.143559,2.45106739 101.240273,2.08861962 101.433705,1.77485417 C101.627137,1.46108871 101.906535,1.30420833 102.271906,1.30420833 L115.650884,1.30420833 C116.016255,1.30420833 116.295653,1.45567904 116.489085,1.758625 C116.682517,2.06157096 116.779232,2.41860906 116.779232,2.82975 C116.779232,3.28416894 116.677144,3.66825538 116.472966,3.98202083 C116.268788,4.29578629 115.994763,4.45266667 115.650884,4.45266667 L110.686155,4.45266667 L110.686155,23.8952083 C110.686155,24.2414323 110.514218,24.5173254 110.170339,24.7228958 C109.82646,24.9284663 109.428856,25.03125 108.977514,25.03125 C108.504681,25.03125 108.101703,24.9284663 107.768571,24.7228958 C107.435438,24.5173254 107.268874,24.2414323 107.268874,23.8952083 L107.268874,4.45266667 L102.271906,4.45266667 C101.928027,4.45266667 101.654003,4.29578629 101.449824,3.98202083 C101.245646,3.66825538 101.143559,3.29498827 101.143559,2.86220833 Z M119.358312,23.8952083 L119.358312,2.44025 C119.358312,2.09402605 119.508756,1.81813297 119.809651,1.6125625 C120.110545,1.40699203 120.465165,1.30420833 120.873521,1.30420833 L132.350427,1.30420833 C132.715799,1.30420833 132.995196,1.45567904 133.188628,1.758625 C133.38206,2.06157096 133.478775,2.40778972 133.478775,2.79729167 C133.478775,3.23007161 133.376687,3.59792904 133.172509,3.900875 C132.968331,4.20382096 132.694306,4.35529167 132.350427,4.35529167 L122.775593,4.35529167 L122.775593,11.78825 L127.740322,11.78825 C128.084201,11.78825 128.358225,11.9234917 128.562404,12.1939792 C128.766582,12.4644666 128.868669,12.7944564 128.868669,13.1839583 C128.868669,13.5301823 128.771955,13.8385334 128.578523,14.1090208 C128.385091,14.3795083 128.105693,14.51475 127.740322,14.51475 L122.775593,14.51475 L122.775593,21.9801667 L132.350427,21.9801667 C132.694306,21.9801667 132.968331,22.1316374 133.172509,22.4345833 C133.376687,22.7375293 133.478775,23.1053867 133.478775,23.5381667 C133.478775,23.9276686 133.38206,24.2738874 133.188628,24.5768333 C132.995196,24.8797793 132.715799,25.03125 132.350427,25.03125 L120.873521,25.03125 C120.465165,25.03125 120.110545,24.9284663 119.809651,24.7228958 C119.508756,24.5173254 119.358312,24.2414323 119.358312,23.8952083 Z M135.026223,21.4608333 C135.026223,21.0496924 135.176668,20.6385576 135.477562,20.2274167 C135.778456,19.8162757 136.12233,19.6107083 136.509194,19.6107083 C136.745611,19.6107083 137.030381,19.74595 137.363514,20.0164375 C137.696647,20.286925 138.024402,20.579047 138.346789,20.8928125 C138.669175,21.206578 139.158121,21.4987 139.81364,21.7691875 C140.46916,22.039675 141.205265,22.1749167 142.021978,22.1749167 C143.247047,22.1749167 144.230311,21.8827946 144.971801,21.2985417 C145.71329,20.7142887 146.084029,19.8595612 146.084029,18.7343333 C146.084029,17.6956615 145.724036,16.8301146 145.004039,16.1376667 C144.284042,15.4452188 143.413611,14.8934326 142.39272,14.4822917 C141.371829,14.0711507 140.345581,13.6275579 139.313944,13.1515 C138.282306,12.6754421 137.406503,11.9613659 136.686506,11.00925 C135.966509,10.0571341 135.606516,8.86700714 135.606516,7.43883333 C135.606516,6.29196649 135.82681,5.29658755 136.267405,4.45266667 C136.708,3.60874578 137.304407,2.95958561 138.056642,2.50516667 C138.808878,2.05074773 139.598713,1.72075797 140.426172,1.5151875 C141.253631,1.30961703 142.129435,1.20683333 143.05361,1.20683333 C143.633906,1.20683333 144.241058,1.24470101 144.875085,1.3204375 C145.509112,1.39617399 146.137757,1.52059636 146.761037,1.69370833 C147.384318,1.86682031 147.900129,2.11566504 148.308485,2.44025 C148.716842,2.76483496 148.921017,3.13269239 148.921017,3.54383333 C148.921017,3.95497428 148.792064,4.36610906 148.534155,4.77725 C148.276246,5.18839094 147.932372,5.39395833 147.502523,5.39395833 C147.287598,5.39395833 146.997455,5.29117464 146.632083,5.08560417 C146.266712,4.88003369 145.777766,4.67446631 145.165232,4.46889583 C144.552697,4.26332536 143.84883,4.16054167 143.05361,4.16054167 C141.828541,4.16054167 140.850649,4.40397673 140.119906,4.89085417 C139.389163,5.3777316 139.023797,6.11885613 139.023797,7.11425 C139.023797,7.76341991 139.217226,8.32061573 139.60409,8.78585417 C139.990954,9.2510926 140.490646,9.63517904 141.10318,9.938125 C141.715715,10.241071 142.39809,10.5386027 143.150325,10.8307292 C143.902561,11.1228556 144.649412,11.4636647 145.390901,11.8531667 C146.13239,12.2426686 146.809392,12.6916711 147.421927,13.2001875 C148.034461,13.7087039 148.534153,14.4065511 148.921017,15.29375 C149.307881,16.1809489 149.50131,17.2087858 149.50131,18.3772917 C149.50131,20.6277474 148.829681,22.3426122 147.486404,23.5219375 C146.143126,24.7012628 144.364653,25.2909167 142.150932,25.2909167 C140.173627,25.2909167 138.491869,24.8743722 137.105606,24.0412708 C135.719344,23.2081694 135.026223,22.3480322 135.026223,21.4608333 Z M151.048758,2.86220833 C151.048758,2.45106739 151.145472,2.08861962 151.338904,1.77485417 C151.532336,1.46108871 151.811734,1.30420833 152.177105,1.30420833 L165.556083,1.30420833 C165.921455,1.30420833 166.200852,1.45567904 166.394284,1.758625 C166.587716,2.06157096 166.684431,2.41860906 166.684431,2.82975 C166.684431,3.28416894 166.582343,3.66825538 166.378165,3.98202083 C166.173987,4.29578629 165.899962,4.45266667 165.556083,4.45266667 L160.591354,4.45266667 L160.591354,23.8952083 C160.591354,24.2414323 160.419417,24.5173254 160.075538,24.7228958 C159.731659,24.9284663 159.334055,25.03125 158.882714,25.03125 C158.40988,25.03125 158.006903,24.9284663 157.67377,24.7228958 C157.340637,24.5173254 157.174073,24.2414323 157.174073,23.8952083 L157.174073,4.45266667 L152.177105,4.45266667 C151.833226,4.45266667 151.559202,4.29578629 151.355024,3.98202083 C151.150845,3.66825538 151.048758,3.29498827 151.048758,2.86220833 Z M35.8928329,17.9877917 L35.8928329,8.54241667 C35.8928329,6.053932 36.5483425,4.22546418 37.8593814,3.05695833 C39.1704203,1.88845249 40.922028,1.30420833 43.1142571,1.30420833 C45.3064861,1.30420833 47.0634668,1.88845249 48.385252,3.05695833 C49.7070371,4.22546418 50.3679198,6.053932 50.3679198,8.54241667 L50.3679198,17.9877917 C50.3679198,20.4762763 49.7070371,22.3047442 48.385252,23.47325 C47.0634668,24.6417558 45.3064861,25.226 43.1142571,25.226 C40.922028,25.226 39.1704203,24.6417558 37.8593814,23.47325 C36.5483425,22.3047442 35.8928329,20.4762763 35.8928329,17.9877917 Z M17.6458414,17.9877917 L17.6458414,8.54241667 C17.6458414,6.053932 18.301351,4.22546418 19.6123899,3.05695833 C20.9234289,1.88845249 22.6750366,1.30420833 24.8672656,1.30420833 C27.0594946,1.30420833 28.8164753,1.88845249 30.1382605,3.05695833 C31.4600456,4.22546418 32.1209283,6.053932 32.1209283,8.54241667 L32.1209283,17.9877917 C32.1209283,20.4762763 31.4600456,22.3047442 30.1382605,23.47325 C28.8164753,24.6417558 27.0594946,25.226 24.8672656,25.226 C22.6750366,25.226 20.9234289,24.6417558 19.6123899,23.47325 C18.301351,22.3047442 17.6458414,20.4762763 17.6458414,17.9877917 Z M21.0631225,17.9877917 C21.0631225,20.7792223 22.3311575,22.1749167 24.8672656,22.1749167 C26.0923347,22.1749167 27.037988,21.8286979 27.7042537,21.13625 C28.3705193,20.4438021 28.7036472,19.3943265 28.7036472,17.9877917 L28.7036472,8.54241667 C28.7036472,7.13588186 28.3705193,6.08640624 27.7042537,5.39395833 C27.037988,4.70151043 26.0923347,4.35529167 24.8672656,4.35529167 C22.3311575,4.35529167 21.0631225,5.75098604 21.0631225,8.54241667 L21.0631225,17.9877917 Z M39.310114,17.9877917 C39.310114,20.7792223 40.578149,22.1749167 43.1142571,22.1749167 C44.3393262,22.1749167 45.2849795,21.8286979 45.9512451,21.13625 C46.6175108,20.4438021 46.9506387,19.3943265 46.9506387,17.9877917 L46.9506387,8.54241667 C46.9506387,7.13588186 46.6175108,6.08640624 45.9512451,5.39395833 C45.2849795,4.70151043 44.3393262,4.35529167 43.1142571,4.35529167 C40.578149,4.35529167 39.310114,5.75098604 39.310114,8.54241667 L39.310114,17.9877917 Z" id="Combined-Shape" fill="#FFFFFF"></path>
                        <path d="M198.793015,33.6403509 C197.973056,33.6403509 197.308348,32.9711099 197.308348,32.1455592 C197.308348,31.3200086 197.973056,30.6507675 198.793015,30.6507675 L234.000852,30.6507675 C234.820811,30.6507675 235.48552,31.3200086 235.48552,32.1455592 C235.48552,32.9711099 234.820811,33.6403509 234.000852,33.6403509 L198.793015,33.6403509 Z" id="Line" fill="#5593F0" fill-rule="nonzero"></path>
                        <path d="M185.465194,23.932432 C185.099822,23.5429301 184.917139,23.0776986 184.917139,22.5367237 C184.917139,21.9957488 185.099822,21.535927 185.465194,21.1572445 C185.830565,20.7785621 186.292646,20.5892237 186.851449,20.5892237 C187.367268,20.5892237 187.813229,20.7785621 188.189347,21.1572445 C188.565465,21.535927 188.753521,21.9957488 188.753521,22.5367237 C188.753521,23.0560596 188.565465,23.5104717 188.189347,23.8999737 C187.813229,24.2894756 187.367268,24.4842237 186.851449,24.4842237 C186.292646,24.4842237 185.830565,24.300295 185.465194,23.932432 Z M198.360594,23.153432 L198.360594,1.66601535 C198.360594,1.2981524 198.527158,1.02225933 198.860291,0.838327851 C199.193424,0.654396376 199.596401,0.562432018 200.069235,0.562432018 C200.542068,0.562432018 200.945045,0.654396376 201.278178,0.838327851 C201.611311,1.02225933 201.777875,1.2981524 201.777875,1.66601535 L201.777875,10.6245154 L209.805262,10.6245154 L209.805262,1.66601535 C209.805262,1.2981524 209.971826,1.02225933 210.304959,0.838327851 C210.638091,0.654396376 211.041069,0.562432018 211.513902,0.562432018 C211.986736,0.562432018 212.389713,0.654396376 212.722846,0.838327851 C213.055979,1.02225933 213.222543,1.2981524 213.222543,1.66601535 L213.222543,23.153432 C213.222543,23.499656 213.055979,23.775549 212.722846,23.9811195 C212.389713,24.18669 211.986736,24.2894737 211.513902,24.2894737 C211.062561,24.2894737 210.664957,24.18669 210.321078,23.9811195 C209.977199,23.775549 209.805262,23.499656 209.805262,23.153432 L209.805262,13.3510154 L201.777875,13.3510154 L201.777875,23.153432 C201.777875,23.499656 201.611311,23.775549 201.278178,23.9811195 C200.945045,24.18669 200.542068,24.2894737 200.069235,24.2894737 C199.617893,24.2894737 199.220289,24.18669 198.87641,23.9811195 C198.532531,23.775549 198.360594,23.499656 198.360594,23.153432 Z M217.478025,23.153432 L217.478025,1.66601535 C217.478025,1.2981524 217.644589,1.02225933 217.977722,0.838327851 C218.310855,0.654396376 218.713832,0.562432018 219.186666,0.562432018 C219.659499,0.562432018 220.062476,0.654396376 220.395609,0.838327851 C220.728742,1.02225933 220.895306,1.2981524 220.895306,1.66601535 L220.895306,23.153432 C220.895306,23.499656 220.728742,23.775549 220.395609,23.9811195 C220.062476,24.18669 219.659499,24.2894737 219.186666,24.2894737 C218.735324,24.2894737 218.33772,24.18669 217.993841,23.9811195 C217.649962,23.775549 217.478025,23.499656 217.478025,23.153432 Z M223.442148,1.99059868 C223.442148,1.60109674 223.667815,1.26569731 224.119156,0.984390351 C224.570497,0.703083389 225.05407,0.562432018 225.569889,0.562432018 C226.214662,0.562432018 226.612266,0.800457415 226.762713,1.27651535 L232.082066,19.7777654 L237.36918,1.27651535 C237.519627,0.800457415 237.906485,0.562432018 238.529766,0.562432018 C239.045585,0.562432018 239.53453,0.703083389 239.996618,0.984390351 C240.458705,1.26569731 240.689746,1.60109674 240.689746,1.99059868 C240.689746,2.05551568 240.668253,2.1528897 240.625269,2.28272368 L234.242045,23.3157237 C234.134583,23.6835866 233.876678,23.970299 233.468321,24.1758695 C233.059965,24.38144 232.597884,24.4842237 232.082066,24.4842237 C230.899982,24.4842237 230.179996,24.0947276 229.922086,23.3157237 L223.474386,2.28272368 C223.452894,2.21780669 223.442148,2.12043267 223.442148,1.99059868 Z" id=".-HIV" fill="#FFFFFF"></path>
                    </g>
                </g>
            </g>
        </g>
    </g>
</svg>