
<svg width="92px" height="125px" viewBox="0 0 92 77" version="1.1" xmlns="http://www.w3.org/2000/svg" xmlns:xlink="http://www.w3.org/1999/xlink">
    <g id="Page-1" stroke="none" stroke-width="1" fill="none" fill-rule="evenodd">
        <g id="Marketing-site" transform="translate(-844.000000, -4353.000000)" fill="#EA945F" fill-rule="nonzero" stroke="#EA945F">
            <g id="data-collect" transform="translate(845.000000, 4354.000000)">
                <path d="M88.125,75 C89.160534,75 90,74.160534 90,73.125 L90,20.625 L90,9.375 C90,8.33946611 89.160534,7.5 88.125,7.5 L33.7465381,7.5 C33.2089449,7.5 32.2627673,7.1111169 31.8944249,6.7427745 L27.0072255,1.85557509 C25.9369802,0.785329795 24.0469021,2.70119926e-09 22.5337306,2.51681342e-09 L1.875,0 C0.839466094,-1.2619239e-10 0,0.839466093 0,1.875 L0,20.625 L0,73.125 C0,74.160534 0.839466094,75 1.875,75 L88.125,75 Z M86.25,18.75 L3.75,18.75 L3.75,3.75 L22.5337306,3.75 C23.0508544,3.75 23.9875461,4.13919657 24.3555751,4.5072255 L29.2427745,9.39442493 C30.3170113,10.4686617 32.2180574,11.25 33.7465381,11.25 L86.25,11.25 L86.25,18.75 Z M86.25,22.5 L86.25,71.25 L3.75,71.25 L3.75,22.5 L86.25,22.5 Z" id="Shape" stroke-width="2"></path>
                <path d="M50.9,26 C49.8506589,26 49,26.850659 49,27.9 C49,28.949341 49.8506589,29.8 50.9,29.8 C58.2453871,29.8 64.2,35.7546128 64.2,43.1 C64.2,44.1493411 65.0506589,45 66.1,45 C67.1493411,45 68,44.1493411 68,43.1 C68,33.6559308 60.3440693,26 50.9,26 Z" id="Shape" stroke-width="1.5"></path>
                <path d="M41,51.1 C41,52.1493411 41.8506589,53 42.9,53 L58.1,53 C59.1493411,53 60,52.1493411 60,51.1 C60,50.0506589 59.1493411,49.2 58.1,49.2 L44.8,49.2 L44.8,35.9 C44.8,34.850659 43.9493411,34 42.9,34 C41.8506589,34 41,34.850659 41,35.9 L41,51.1 Z" id="Shape" stroke-width="1.5"></path>
                <path d="M49,43.1 C49,44.1493411 49.8506589,45 50.9,45 L66.1,45 C67.1493411,45 68,44.1493411 68,43.1 C68,42.0506589 67.1493411,41.2 66.1,41.2 L52.8,41.2 L52.8,27.9 C52.8,26.850659 51.9493411,26 50.9,26 C49.8506589,26 49,26.850659 49,27.9 L49,43.1 Z" id="Shape" stroke-width="1.5"></path>
                <path d="M26,51 C26,60.3888408 33.3873016,68 42.5,68 C51.6126985,68 59,60.3888408 59,51 C59,49.9567954 58.1791888,49.1111111 57.1666667,49.1111111 C56.1541445,49.1111111 55.3333333,49.9567954 55.3333333,51 C55.3333333,58.3024316 49.5876542,64.2222222 42.5,64.2222222 C35.4123457,64.2222222 29.6666667,58.3024316 29.6666667,51 C29.6666667,43.6975684 35.4123457,37.7777778 42.5,37.7777778 C43.5125221,37.7777778 44.3333333,36.9320934 44.3333333,35.8888889 C44.3333333,34.8456844 43.5125221,34 42.5,34 C33.3873016,34 26,41.6111592 26,51 Z" id="Shape" stroke-width="1.5"></path>
            </g>
        </g>
    </g>
</svg>