
<svg width="95px" height="125px" viewBox="0 0 95 95" version="1.1" xmlns="http://www.w3.org/2000/svg" xmlns:xlink="http://www.w3.org/1999/xlink">
    <g id="Page-1" stroke="none" stroke-width="1" fill="none" fill-rule="evenodd">
        <g id="Marketing-site" transform="translate(-214.000000, -4344.000000)" fill="#EA945F" fill-rule="nonzero" stroke="#EA945F" stroke-width="2">
            <g id="graph" transform="translate(215.000000, 4345.000000)">
                <path d="M93,10.8386194 C93,8.27760851 90.9137,6.19349683 88.35,6.19349683 L52.7,6.19349683 L52.7,4.64512262 C52.7,2.08411168 50.6137,0 48.05,0 L44.95,0 C42.3863,0 40.3,2.08411168 40.3,4.64512262 L40.3,6.19349683 L4.65,6.19349683 C2.0863,6.19349683 0,8.27760851 0,10.8386194 C0,12.8546027 1.30045,14.5578143 3.1,15.1988412 L3.1,71.2252135 C3.1,75.4940812 6.57665,78.9670846 10.85,78.9670846 L44.95,78.9670846 L44.95,83.7949153 C43.09465,84.4405874 41.7508,86.1856051 41.7508,88.2573298 C41.7508,90.8725338 43.88205,93 46.5,93 C49.11795,93 51.24765,90.8725338 51.24765,88.2573298 C51.24765,86.1871535 49.9038,84.4405874 48.05,83.7949153 L48.05,78.9670846 L82.15,78.9670846 C86.42335,78.9670846 89.9,75.4940812 89.9,71.2252135 L89.9,15.1988412 C91.69955,14.5578143 93,12.8546027 93,10.8386194 Z M46.5,89.7081564 C45.7002,89.7081564 45.0492,89.0578393 45.0492,88.2573298 C45.0492,87.4568203 45.7002,86.8065032 46.5,86.8065032 C47.2998,86.8065032 47.9508,87.4568203 47.9508,88.2573298 C47.9508,89.0578393 47.2998,89.7081564 46.5,89.7081564 Z M43.4,4.64512262 C43.4,3.79042006 44.09595,3.09674841 44.95,3.09674841 L48.05,3.09674841 C48.9056,3.09674841 49.6,3.79042006 49.6,4.64512262 L49.6,6.19349683 L43.4,6.19349683 L43.4,4.64512262 Z M86.8,71.2252135 C86.8,73.7862245 84.7137,75.8703361 82.15,75.8703361 L48.05,75.8703361 L44.95,75.8703361 L10.85,75.8703361 C8.2863,75.8703361 6.2,73.7862245 6.2,71.2252135 L6.2,15.4837421 L86.8,15.4837421 L86.8,71.2252135 Z M88.35,12.3869937 L4.65,12.3869937 C3.79595,12.3869937 3.1,11.693322 3.1,10.8386194 C3.1,9.98391689 3.79595,9.29024524 4.65,9.29024524 L41.85,9.29024524 L51.15,9.29024524 L88.35,9.29024524 C89.2056,9.29024524 89.9,9.98391689 89.9,10.8386194 C89.9,11.693322 89.2056,12.3869937 88.35,12.3869937 Z" id="Shape"></path>
                <path d="M18.5,68 L30.5,68 C31.328,68 32,67.3412632 32,66.5263158 L32,41.4736842 C32,40.6587368 31.328,40 30.5,40 L18.5,40 C17.672,40 17,40.6587368 17,41.4736842 L17,66.5263158 C17,67.3412632 17.672,68 18.5,68 Z M20,42.9473684 L29,42.9473684 L29,65.0526316 L20,65.0526316 L20,42.9473684 Z" id="Shape"></path>
                <path d="M62.6,69 L75.4,69 C76.2848,69 77,68.3091818 77,67.4545455 L77,36.5454545 C77,35.6908182 76.2848,35 75.4,35 L62.6,35 C61.7152,35 61,35.6908182 61,36.5454545 L61,67.4545455 C61,68.3091818 61.7152,69 62.6,69 Z M64.2,38.0909091 L73.8,38.0909091 L73.8,65.9090909 L64.2,65.9090909 L64.2,38.0909091 Z" id="Shape"></path>
                <path d="M40.5,70 L52.5,70 C53.3295,70 54,69.307871 54,68.4516129 L54,23.5483871 C54,22.692129 53.3295,22 52.5,22 L40.5,22 C39.672,22 39,22.692129 39,23.5483871 L39,68.4516129 C39,69.307871 39.672,70 40.5,70 Z M42,25.0967742 L51,25.0967742 L51,66.9032258 L42,66.9032258 L42,25.0967742 Z" id="Shape"></path>
            </g>
        </g>
    </g>
</svg>