
<svg width="77px" height="125px" viewBox="0 0 77 125" version="1.1" xmlns="http://www.w3.org/2000/svg" xmlns:xlink="http://www.w3.org/1999/xlink">
    <g id="Page-1" stroke="none" stroke-width="1" fill="none" fill-rule="evenodd">
        <g id="Marketing-site" transform="translate(-1178.000000, -4004.000000)" fill="#EA945F" fill-rule="nonzero" stroke="#EA945F">
            <g id="Group-7" transform="translate(122.000000, 4005.000000)">
                <g id="Phone-note" transform="translate(1056.710183, 0.000000)">
                    <path d="M64.0677843,0 L10.9191608,0 C4.89894367,0 0,4.80566036 0,10.7125121 L0,112.702122 C0,118.608974 4.89894367,123.414634 10.9191608,123.414634 L64.0677844,123.414634 C70.0880015,123.414634 74.9869452,118.608974 74.9869452,112.702122 L74.9869452,10.7125121 C74.986945,4.80566036 70.0880015,0 64.0677843,0 Z M71.0139897,112.702122 C71.0139897,116.459874 67.8984788,119.51733 64.0677843,119.51733 L10.9191608,119.51733 C7.08846623,119.51733 3.97295532,116.459874 3.97295532,112.702122 L3.97295532,101.492298 L71.0139898,101.492298 L71.0139898,112.702122 L71.0139897,112.702122 Z M71.0139898,97.5949935 L3.97295532,97.5949935 L3.97295532,25.8196405 L71.0139898,25.8196405 L71.0139898,97.5949935 L71.0139898,97.5949935 Z M71.0139898,21.9223363 L3.97295532,21.9223363 L3.97295532,10.7125121 C3.97295532,6.95475967 7.0884661,3.89730423 10.9191608,3.89730423 L64.0677844,3.89730423 C67.8984789,3.89730423 71.0139898,6.95475967 71.0139898,10.7125121 L71.0139898,21.9223363 L71.0139898,21.9223363 Z" id="Shape"></path>
                    <path d="M42.0035972,10.2845528 L30.3975912,10.2845528 C29.3186729,10.2845528 28.443324,11.1482946 28.443324,12.2129065 C28.443324,13.2775184 29.3186729,14.1412602 30.3975912,14.1412602 L42.0035972,14.1412602 C43.0825156,14.1412602 43.9578644,13.2775184 43.9578644,12.2129065 C43.9578644,11.1482946 43.0825156,10.2845528 42.0035972,10.2845528 Z" id="Shape"></path>
                    <path d="M36.2005942,115.70122 C39.7645041,115.70122 42.664986,112.817412 42.664986,109.27399 C42.664986,105.729336 39.7645041,102.845528 36.2005942,102.845528 C32.6366844,102.845528 29.7362024,105.729336 29.7362024,109.27399 C29.7362024,112.817412 32.6366844,115.70122 36.2005942,115.70122 Z M36.2005942,106.633069 C37.6650958,106.633069 38.8555459,107.817908 38.8555459,109.27399 C38.8555459,110.730073 37.6650958,111.913679 36.2005942,111.913679 C34.7360927,111.913679 33.5456426,110.730073 33.5456426,109.27399 C33.5456426,107.817908 34.7360927,106.633069 36.2005942,106.633069 Z" id="Shape"></path>
                    <path d="M21.6030954,83.5619919 L52.0909714,83.5619919 C55.4477303,83.5619919 58.1795264,80.9131005 58.1795264,77.6582127 L58.1795264,48.0955853 C58.1795264,44.8406975 55.4477303,42.1918061 52.0909714,42.1918061 L48.5576765,42.1918061 L48.5576765,40.4862699 C48.5576765,39.4267134 47.6711313,38.5670732 46.5784129,38.5670732 C45.4856944,38.5670732 44.5991493,39.4267134 44.5991493,40.4862699 L44.5991493,42.1918061 L38.826297,42.1918061 L38.826297,40.4862699 C38.826297,39.4267134 37.9397519,38.5670732 36.8470334,38.5670732 C35.7543149,38.5670732 34.8677698,39.4267134 34.8677698,40.4862699 L34.8677698,42.1918061 L29.0949176,42.1918061 L29.0949176,40.4862699 C29.0949176,39.4267134 28.2083724,38.5670732 27.1156539,38.5670732 C26.0229355,38.5670732 25.1363903,39.4267134 25.1363903,40.4862699 L25.1363903,42.1918061 L21.6030954,42.1918061 C18.2463365,42.1918061 15.5145404,44.8406975 15.5145404,48.0955853 L15.5145404,77.6582127 C15.5145404,80.9131005 18.2463365,83.5619919 21.6030954,83.5619919 Z M19.4730676,48.0955853 C19.4730676,46.9573117 20.4291963,46.0301997 21.6030954,46.0301997 L25.1363903,46.0301997 L25.1363903,47.8431909 C25.1363903,48.9027475 26.0229355,49.7623877 27.1156539,49.7623877 C28.2083724,49.7623877 29.0949176,48.9027475 29.0949176,47.8431909 L29.0949176,46.0301997 L34.8677698,46.0301997 L34.8677698,47.8431909 C34.8677698,48.9027475 35.7543149,49.7623877 36.8470334,49.7623877 C37.9397519,49.7623877 38.826297,48.9027475 38.826297,47.8431909 L38.826297,46.0301997 L44.5991493,46.0301997 L44.5991493,47.8431909 C44.5991493,48.9027475 45.4856944,49.7623877 46.5784129,49.7623877 C47.6711313,49.7623877 48.5576765,48.9027475 48.5576765,47.8431909 L48.5576765,46.0301997 L52.0909714,46.0301997 C53.2648705,46.0301997 54.2209992,46.9573117 54.2209992,48.0955853 L54.2209992,77.6582127 C54.2209992,78.7964863 53.2648705,79.7235983 52.0909714,79.7235983 L21.6030954,79.7235983 C20.4291963,79.7235983 19.4730676,78.7964863 19.4730676,77.6582127 L19.4730676,48.0955853 L19.4730676,48.0955853 Z" id="Shape"></path>
                    <path d="M27.8241992,59.1361789 L47.162746,59.1361789 C48.2484907,59.1361789 49.1293779,58.2724371 49.1293779,57.2078252 C49.1293779,56.1432133 48.2484907,55.2794715 47.162746,55.2794715 L27.8241992,55.2794715 C26.7384545,55.2794715 25.8575673,56.1432133 25.8575673,57.2078252 C25.8575673,58.2724371 26.7384545,59.1361789 27.8241992,59.1361789 Z" id="Shape"></path>
                    <path d="M27.8241992,65.5640244 L47.162746,65.5640244 C48.2484907,65.5640244 49.1293779,64.7002826 49.1293779,63.6356707 C49.1293779,62.5710588 48.2484907,61.7073171 47.162746,61.7073171 L27.8241992,61.7073171 C26.7384545,61.7073171 25.8575673,62.5710588 25.8575673,63.6356707 C25.8575673,64.7002826 26.7384545,65.5640244 27.8241992,65.5640244 Z" id="Shape"></path>
                    <path d="M27.8241992,73.277439 L47.162746,73.277439 C48.2484907,73.277439 49.1293779,72.4136973 49.1293779,71.3490854 C49.1293779,70.2844735 48.2484907,69.4207317 47.162746,69.4207317 L27.8241992,69.4207317 C26.7384545,69.4207317 25.8575673,70.2844735 25.8575673,71.3490854 C25.8575673,72.4136973 26.7384545,73.277439 27.8241992,73.277439 Z" id="Shape"></path>
                </g>
            </g>
        </g>
    </g>
</svg>