
<svg width="88px" height="125px" viewBox="0 0 88 120" version="1.1" xmlns="http://www.w3.org/2000/svg" xmlns:xlink="http://www.w3.org/1999/xlink">
    <g id="Page-1" stroke="none" stroke-width="1" fill="none" fill-rule="evenodd">
        <g id="Marketing-site" transform="translate(-538.000000, -4006.000000)" fill="#EA945F" fill-rule="nonzero" stroke="#EA945F">
            <g id="Group-7" transform="translate(122.000000, 4005.000000)">
                <g id="sms-n-email" transform="translate(417.746736, 2.804878)">
                    <g id="noun_776954" stroke-width="2">
                        <path d="M77.5710453,3.77534765e-15 L2.5570747,3.77534765e-15 C1.14311869,0.00585162148 1.20490407e-05,1.14123393 2.44260522e-05,2.53977148 L2.44260522e-05,59.1054769 C-0.0042932397,60.0854186 0.56410731,60.9796338 1.45884092,61.4005061 C2.35357452,61.8213783 3.41359138,61.6931517 4.17940491,61.0714088 L11.5712141,55.1417331 L77.5710453,55.1417331 C78.9808197,55.1359109 80.1222092,54.0069777 80.1280956,52.6125883 L80.1280956,2.52914482 C80.1222092,1.13475544 78.9808197,0.0058221611 77.5710453,3.77534765e-15 Z M76.904923,51.9643621 L11.3670798,51.9643621 C10.7806205,51.9645643 10.2119012,52.1633189 9.75549353,52.527575 L3.25542876,57.7346379 L3.25542876,3.18799767 L76.904923,3.18799767 L76.904923,51.9643621 Z" id="Shape"></path>
                        <path d="M14.5477493,19.2642723 L65.5803463,19.2642723 C66.477181,19.2642723 67.2042092,18.6892784 67.2042092,17.9799875 C67.2042092,17.2706966 66.477181,16.6957027 65.5803463,16.6957027 L14.5477493,16.6957027 C13.6509146,16.6957027 12.9238864,17.2706966 12.9238864,17.9799875 C12.9238864,18.6892784 13.6509146,19.2642723 14.5477493,19.2642723 Z" id="Shape"></path>
                        <path d="M14.5477493,28.2542661 L65.5803463,28.2542661 C66.477181,28.2542661 67.2042092,27.6792722 67.2042092,26.9699812 C67.2042092,26.2606903 66.477181,25.6856964 65.5803463,25.6856964 L14.5477493,25.6856964 C13.6509146,25.6856964 12.9238864,26.2606903 12.9238864,26.9699812 C12.9238864,27.6792722 13.6509146,28.2542661 14.5477493,28.2542661 Z" id="Shape"></path>
                        <path d="M14.5374513,35.959975 L47.4972034,35.959975 C48.3883506,35.959975 49.1107683,35.3849811 49.1107683,34.6756902 C49.1107683,33.9663992 48.3883506,33.3914053 47.4972034,33.3914053 L14.5374513,33.3914053 C13.646304,33.3914053 12.9238864,33.9663992 12.9238864,34.6756902 C12.9238864,35.3849811 13.646304,35.959975 14.5374513,35.959975 L14.5374513,35.959975 Z" id="Shape"></path>
                    </g>
                    <g id="noun_691764" transform="translate(21.970607, 69.351380)">
                        <path d="M56.4026269,47.5185384 L6.92441639,47.5185384 C3.10500409,47.5185384 0,44.4120139 0,40.5907315 L0,6.92780691 C0,3.10652445 3.10500409,0 6.92441639,0 L56.4026269,0 C60.2220392,0 63.3270433,3.10652445 63.3270433,6.92780691 L63.3270433,40.5907315 C63.3270433,44.4120139 60.2220392,47.5185384 56.4026269,47.5185384 Z M6.92441639,3.9598782 C5.28780811,3.9598782 3.9579402,5.29039727 3.9579402,6.92780691 L3.9579402,40.5907315 C3.9579402,42.2261612 5.28780811,43.5586602 6.92441639,43.5586602 L56.4026269,43.5586602 C58.0372562,43.5586602 59.3691031,42.2261612 59.3691031,40.5907315 L59.3691031,6.92780691 C59.3691031,5.29039727 58.0372562,3.9598782 56.4026269,3.9598782 L6.92441639,3.9598782 Z M31.6635216,30.6395576 C30.4702027,30.6395576 29.2788627,30.2059509 28.326978,29.3426974 L8.56300363,11.3648504 C7.75360486,10.630293 7.69621473,9.37699157 8.43041264,8.56719648 C9.16658951,7.75938133 10.4153196,7.69998316 11.2266974,8.43454056 L30.9906718,26.4104076 C31.372613,26.7628368 31.9524513,26.7608569 32.3363715,26.4123876 L52.1003459,8.43454056 C52.9077657,7.69998316 54.1624327,7.75938133 54.8966306,8.56719648 C55.6308286,9.37699157 55.5714594,10.630293 54.7640396,11.3648504 L35.0000652,29.3426974 C34.0481806,30.2059509 32.8568406,30.6395576 31.6635216,30.6395576 Z M9.89485051,39.598782 C9.38823417,39.598782 8.88161782,39.4047479 8.49571865,39.0186598 C7.72194134,38.2445036 7.72194134,36.9931821 8.49571865,36.2190259 L22.3485094,22.3594522 C23.1222867,21.5852961 24.3729958,21.5852961 25.1467731,22.3594522 C25.9205504,23.1336084 25.9205504,24.3849299 25.1467731,25.1590861 L11.2939824,39.0186598 C10.9080832,39.4047479 10.4014669,39.598782 9.89485051,39.598782 Z M53.4321928,39.598782 C52.9255764,39.598782 52.4189601,39.4047479 52.0330609,39.0186598 L38.1802702,25.1590861 C37.4064929,24.3849299 37.4064929,23.1336084 38.1802702,22.3594522 C38.9540475,21.5852961 40.2047566,21.5852961 40.9785339,22.3594522 L54.8313246,36.2190259 C55.6051019,36.9931821 55.6051019,38.2445036 54.8313246,39.0186598 C54.4454255,39.4047479 53.9388091,39.598782 53.4321928,39.598782 Z" id="Shape"></path>
                    </g>
                </g>
            </g>
        </g>
    </g>
</svg>