
<svg width="94px" height="125px" viewBox="0 0 94 76" version="1.1" xmlns="http://www.w3.org/2000/svg" xmlns:xlink="http://www.w3.org/1999/xlink">
    <g id="Page-1" stroke="none" stroke-width="1" fill="none" fill-rule="evenodd">
        <g id="Marketing-site" transform="translate(-534.000000, -4354.000000)" fill="#EA945F" fill-rule="nonzero" stroke="#EA945F" stroke-width="2">
            <g id="widget" transform="translate(535.000000, 4355.000000)">
                <path d="M47,24 L79,24 C80.6568542,24 82,25.3431458 82,27 L82,58 C82,59.6568542 80.6568542,61 79,61 L47,61 C45.3431458,61 44,59.6568542 44,58 L44,27 C44,25.3431458 45.3431458,24 47,24 Z" id="Rectangle-path"></path>
                <path d="M37.1942624,26 L9.80573759,26 C8.80845625,26 8,26.8954305 8,28 C8,29.1045695 8.80845625,30 9.80573759,30 L37.1942624,30 C38.1915437,30 39,29.1045695 39,28 C39,26.8954305 38.1915437,26 37.1942624,26 Z" id="Shape"></path>
                <path d="M9.84981282,41 L27.1501872,41 C28.1718106,41 29,40.1045695 29,39 C29,37.8954305 28.1718106,37 27.1501872,37 L9.84981282,37 C8.82818941,37 8,37.8954305 8,39 C8,40.1045695 8.82818941,41 9.84981282,41 Z" id="Shape"></path>
                <path d="M32.1268012,47 L9.87319885,47 C8.83865969,47 8,47.8954305 8,49 C8,50.1045695 8.83865969,51 9.87319885,51 L32.1268012,51 C33.1613403,51 34,50.1045695 34,49 C34,47.8954305 33.1613403,47 32.1268012,47 Z" id="Shape"></path>
                <path d="M24.1220657,56 L9.87793427,56 C8.84077981,56 8,56.8954305 8,58 C8,59.1045695 8.84077981,60 9.87793427,60 L24.1220657,60 C25.1592202,60 26,59.1045695 26,58 C26,56.8954305 25.1592202,56 24.1220657,56 Z" id="Shape"></path>
                <path d="M92,1.85 C92,0.828273213 91.1762039,6.2562722e-17 90.16,0 L1.84,0 C0.82379606,-6.2562722e-17 1.2444909e-16,0.828273213 0,1.85 L0,72.15 C1.2444909e-16,73.1717268 0.82379606,74 1.84,74 L90.16,74 C91.1762039,74 92,73.1717268 92,72.15 L92,1.85 Z M88.32,3.7 L88.32,12.4875 L3.68,12.4875 L3.68,3.7 L88.32,3.7 Z M3.68,70.3 L3.68,16.1875 L88.32,16.1875 L88.32,70.3 L3.68,70.3 Z" id="Shape"></path>
                <circle id="Oval" cx="10" cy="9" r="2"></circle>
                <circle id="Oval" cx="16" cy="9" r="2"></circle>
                <circle id="Oval" cx="23" cy="9" r="2"></circle>
            </g>
        </g>
    </g>
</svg>